User Type,Username,Date,Text
,old69boy,2012-07-13T21:05Z,"sample video added with all 3 audios ..

please bear my seeding speed as i am on very slow internet connection !!!"
,old69boy,2012-07-13T21:48Z,"my first upload 

the sample video is in m4v

the complete movie video is in mp4


also i am seeding this since long but its showing 0 seeders ?

can someone please help ???"
,old69boy,2012-07-14T05:05Z,"General
Complete name                            : D:Nikhil OfficeOldboy   (2003)Oldboy (Korean-Hindi-English).mp4
Format                                   : MPEG-4
Format profile                           : Base Media
Codec ID                                 : isom
File size                                : 1.79 GiB
Duration                                 : 1h 59mn
Overall bit rate mode                    : Variable
Overall bit rate                         : 2 139 Kbps
Encoded date                             : UTC 2012-07-12 17:57:05
Tagged date                              : UTC 2012-07-12 17:57:05
Writing application                      : Yamb 2.1.0.0 [http://yamb.unite-video.com]

Video
ID                                       : 1
Format                                   : AVC
Format/Info                              : Advanced Video Codec
Format profile                           : High@L4.1
Format settings, CABAC                   : Yes
Format settings, ReFrames                : 10 frames
Codec ID                                 : avc1
Codec ID/Info                            : Advanced Video Coding
Duration                                 : 1h 59mn
Bit rate                                 : 1 837 Kbps
Maximum bit rate                         : 4 637 Kbps
Width                                    : 1 280 pixels
Height                                   : 544 pixels
Display aspect ratio                     : 2.35:1
Frame rate mode                          : Constant
Frame rate                               : 23.976 fps
Color space                              : YUV
Chroma subsampling                       : 4:2:0
Bit depth                                : 8 bits
Scan type                                : Progressive
Bits/(Pixel*Frame)                       : 0.110
Stream size                              : 1.54 GiB (86%)
Title                                    : Imported with GPAC 0.4.6-DEV (internal rev. 7)
Writing library                          : x264 core 66 r1109M 75b495f
Encoding settings                        : cabac=1 / ref=10 / deblock=1:-1:-1 / analyse=0x3:0x113 / me=umh / subme=6 / psy_rd=1.0:0.0 / mixed_ref=1 / me_range=16 / chroma_me=1 / trellis=2 / 8x8dct=1 / cqm=0 / deadzone=21,11 / chroma_qp_offset=-2 / threads=3 / nr=0 / decimate=0 / mbaff=0 / bframes=3 / b_pyramid=1 / b_adapt=1 / b_bias=0 / direct=3 / wpredb=1 / keyint=250 / keyint_min=25 / scenecut=40(pre) / rc=2pass / bitrate=1837 / ratetol=1.0 / qcomp=0.60 / qpmin=10 / qpmax=51 / qpstep=4 / cplxblur=20.0 / qblur=0.5 / ip_ratio=1.40 / pb_ratio=1.30 / aq=1:1.00
Language                                 : English
Encoded date                             : UTC 2012-07-13 12:05:07
Tagged date                              : UTC 2012-07-12 18:03:36

Audio #1
ID                                       : 2
Format                                   : AAC
Format/Info                              : Advanced Audio Codec
Format profile                           : HE-AACv2 / HE-AAC / LC
Codec ID                                 : 40
Duration                                 : 1h 59mn
Bit rate mode                            : Variable
Bit rate                                 : 40.0 Kbps
Maximum bit rate                         : 50.9 Kbps
Channel(s)                               : 2 channels / 1 channel / 1 channel
Channel positions                        : Front: L R / Front: C / Front: C
Sampling rate                            : 48.0 KHz / 48.0 KHz / 24.0 KHz
Compression mode                         : Lossy
Stream size                              : 34.3 MiB (2%)
Title                                    : Korean Audio - Original
Language                                 : Korean
Encoded date                             : UTC 2012-07-12 17:59:59
Tagged date                              : UTC 2012-07-12 18:03:36

Audio #2
ID                                       : 3
Format                                   : AAC
Format/Info                              : Advanced Audio Codec
Format profile                           : LC
Codec ID                               "
